<svg xmlns="http://www.w3.org/2000/svg" width="45" height="43" viewBox="0 0 45 43">
  <g id="ic_logo" transform="translate(-67.403 -65.041)">
    <path id="path0" d="M98.141,65.087c-4.99.765-6.23,7.289-1.752,9.51a5.9,5.9,0,0,0,4.965,0,5.127,5.127,0,0,0,0-8.934,5.4,5.4,0,0,0-3.213-.576m-16.939,0a4.7,4.7,0,0,0-4.381,3.458,5.137,5.137,0,1,0,9.93,2.594c.023-.12-.025-.161,0-.288a4.775,4.775,0,0,0-2.044-4.9,5.434,5.434,0,0,0-3.5-.865M75.946,76.326a1.368,1.368,0,0,0-.292,0,10.278,10.278,0,0,0-4.965,2.017c-2.218,1.892-3.15,4.473-2.628,8.069,1.223,8.432,9.707,17.76,18.691,20.749,2.545.847,3.558.959,3.213.288a3.015,3.015,0,0,0-.876-.865c-.339-.252-2.182-1.348-2.92-1.729a6.842,6.842,0,0,1-.876-.288c-.342-.194-.918-.726-1.168-.865a14.827,14.827,0,0,1-3.5-2.305,18.192,18.192,0,0,1-3.213-3.746c-.066-.12.045-.208,0-.288a19.449,19.449,0,0,1-2.044-6.052c-.025-.157-.24-.55-.292-.865-.595-3.614.333-6.514,2.336-7.493a4.343,4.343,0,0,1,3.213-.288c1.04.418,2.019,1.635,2.92,3.746.077.18.167.572.292.865,1.186,2.778,2,3.821,3.213,4.611.942.612,2.258.951,2.628.576.445-.451.226-1.251-.584-2.594a23.046,23.046,0,0,1-1.46-2.305c-.3-.549-.667-1.828-.876-2.305-.1-.23-.229-.434-.292-.576a12.315,12.315,0,0,1-.584-1.441,10.543,10.543,0,0,0-4.381-5.475,11.865,11.865,0,0,0-2.336-1.153,10.82,10.82,0,0,0-3.213-.288m26.576,0a7.128,7.128,0,0,0-2.044.576,10.7,10.7,0,0,0-5.549,5.764,32.894,32.894,0,0,1-2.92,6.34c-1.065,1.894-1.13,2.056-1.168,2.594a.978.978,0,0,0,1.168,1.153c1.95-.18,3.308-1.835,4.673-5.187,1.49-3.661,2.243-4.906,4.089-5.187,3.506-.534,5.685,3.525,4.673,8.934a16.067,16.067,0,0,1-.876,3.17c-.119.3-.25.737-.292.865a16.347,16.347,0,0,1-1.752,3.17,15.273,15.273,0,0,1-4.089,4.035,29.033,29.033,0,0,1-2.628,1.729c-.213.117-.664.165-.876.288s-.409.195-.584.288-.523.255-.584.288-.117.194-.292.288c-.855.462-1.849,1-2.044,1.153a4.59,4.59,0,0,0-.584.865c-.418.638-.182.61,1.168.288,9.167-2.188,18.613-11.553,20.443-20.461a10.078,10.078,0,0,0-.584-6.628c-1.518-3-5.516-4.893-9.345-4.323m-26.284,17a8.96,8.96,0,0,0,.876,2.594,18.363,18.363,0,0,0,9.345,8.357,3.4,3.4,0,0,0,2.044.288c.625-.128.143-.887-.876-1.729a23.352,23.352,0,0,0-2.336-1.729,2.094,2.094,0,0,1-1.168-.288,23.859,23.859,0,0,1-3.5-2.594,30.713,30.713,0,0,1-4.381-4.611c-.148-.215,0-.363,0-.288m28.036,0c-.057.022.03.238,0,.288a21.121,21.121,0,0,1-2.336,2.594,25.549,25.549,0,0,1-6.133,4.9c-.811.447-1.472.663-1.752.865-.126.09-.444.479-.584.576-1.064.742-1.462,1.215-1.46,1.729v.288h0c.285.181.449.373.876.288a9.112,9.112,0,0,0,2.336-.865,19.3,19.3,0,0,0,6.717-5.475,21.422,21.422,0,0,0,2.044-4.323c.146-.36.545-.507.584-.576.087-.158-.166-.336-.292-.288M78.282,95.058c-.027.106,2.245,2.064,3.213,2.882,1.99,1.682,3.9,2.588,4.381,2.017a.816.816,0,0,0,0-.865,2.69,2.69,0,0,0-1.752-1.153,5.989,5.989,0,0,1-1.168-.288,23.323,23.323,0,0,1-2.92-1.441,16.958,16.958,0,0,1-1.46-1.153c-.246-.184-.268-.094-.292,0m23.656,0c-.239.177-1.187.989-1.46,1.153-.074.044-.209-.051-.292,0s-.455.217-.584.288-.231.254-.292.288a10.822,10.822,0,0,1-2.92,1.153,1.965,1.965,0,0,0-1.752,2.017c.109.716,1.441.09,3.213-1.153a32.31,32.31,0,0,0,4.381-3.746c-.026-.1-.011-.208-.292,0" transform="translate(-0.347)" fill="#11bc89" fill-rule="evenodd"/>
    <path id="path1" d="M124.4,95.467c0,.076-.007.361,0,.323a2.338,2.338,0,0,0,0-.323c-.007-.038,0-.076,0,0m26.562,10.019c0,.005.272-.049.328,0h0c-.085-.093-.328-.023-.328,0m2.623,6.141c0,.067-.007.038,0,0a2.286,2.286,0,0,0,0-.323c-.008-.029,0,.256,0,.323m0,.323c0,.134-.007.4,0,.323a2.639,2.639,0,0,0,0-.323c-.007-.063,0-.135,0,0m-20.659,7.434h0c.094-.084.352,0,.328,0-.005,0-.278-.055-.328,0m8.526,4.525-.328.323.328-.323c.2-.193.328-.319.328-.323,0-.022,0-.01-.328.323m-25.25,1.939c0,.005-.055-.049,0,0h0c-.085-.093,0-.024,0,0m-4.919,2.909c0,.005.272.274.328.323h0v-.323c-.085-.093-.328-.023-.328,0m33.776.323h0c.094-.084.024,0,0,0-.005,0,.05-.055,0,0m-5.9.646h0c.149-.142.328-.319.328-.323,0-.022-.084.075-.328.323" transform="translate(-41.192 -24.799)" fill="#11bc89" fill-rule="evenodd"/>
    <path id="path2" d="M123.6,65.356a2.687,2.687,0,0,0,.328,0c.03-.007-.268,0-.328,0s-.03-.007,0,0m4.591,8.614h0c.089-.074.328-.283.328-.287a2.671,2.671,0,0,0-.328.287m-7.87,0s-.055-.044,0,0h0c-.085-.082,0-.021,0,0m-2.3,2.584c.039.007-.03.007,0,0s.068,0,0,0-.039-.007,0,0m.656,0a2.624,2.624,0,0,0,.328,0c.03-.007-.268,0-.328,0s-.03-.007,0,0m30.5,0a2.719,2.719,0,0,0,.328,0c.03-.007-.26,0-.328,0s-.039-.007,0,0m7.214,2.3s-.055-.044,0,0h0c-.085-.082,0-.021,0,0m-32.464,4.881c.084.075.32,0,.328,0s-.244.075-.328,0,.009-.287,0-.287-.084.213,0,.287m27.217,4.881a2.816,2.816,0,0,0,0,.287,2.171,2.171,0,0,0,0-.287c-.006-.07,0-.149,0,0m-29.841,7.465c.129.12,0,.021,0,0,0,0,.081.066,0,0l-.328-.287.328.287m24.922,0c-.075.067-.009.287,0,.287s-.075-.22,0-.287.336,0,.328,0-.253-.067-.328,0m-.656.861h0c.18-.151.023-.287,0-.287,0,0,.1.194,0,.287m-23.282,0c.058.052-.008,0,0,0s.058.052,0,0,.008,0,0,0-.058-.052,0,0m-.656.287s-.055.243,0,.287h0c-.085-.082,0-.308,0-.287m6.886,3.158c.047.006-.038.007,0,0s.085,0,0,0-.047-.006,0,0m10.493,0c.03.007-.03.007,0,0s.06,0,0,0-.03-.007,0,0m10.493.574h0c.094-.074.024,0,0,0-.005,0,.05-.049,0,0m-16.724,6.03c.058.052-.009,0,0,0s.058.052,0,0,.009,0,0,0-.058-.052,0,0" transform="translate(-46.622 -0.263)" fill="#11bc89" fill-rule="evenodd"/>
    <path id="path3" d="M81.146,65.356a2.289,2.289,0,0,0,.292,0c.042-.006-.2,0-.292,0s-.05-.006,0,0m.584,0c.027.007-.027.007,0,0s.053,0,0,0-.027-.007,0,0M101.89,66.8s.243-.044.292,0h0c-.076-.083-.292-.021-.292,0m1.753,3.747c0,.09-.006.049,0,0s.006.041,0,0,0-.09,0,0m-9.057,3.17s.243-.044.292,0v0c-.076-.083-.292-.021-.292,0M76.179,76.6a2.489,2.489,0,0,0,.292,0c.064-.006-.163,0-.292,0s-.065-.006,0,0m27.172,0a2.451,2.451,0,0,0,.292,0c.057-.006-.171,0-.292,0s-.065-.006,0,0M70.043,78.9h0c.1-.087.021-.288,0-.288,0,0,.052.232,0,.288m27.172.288c-.067.067-.3.288-.292.288s.225-.221.292-.288.008,0,0,0,.067-.068,0,0M82.9,79.478c.068.071,0,0,0,0,.021,0,.122.113,0,0v0m29.51,4.611c0,.06-.007.034,0,0s.007.026,0,0,0-.06,0,0m-44.995.288c0,.06.286.322.292.288a2.037,2.037,0,0,0,0-.288c-.007-.026-.292-.06-.292,0m44.995,1.153c0,.052-.007.314,0,.288a2.039,2.039,0,0,0,0-.288c-.007-.026,0-.052,0,0M105.4,88.412c0,.06-.007.034,0,0s.007.026,0,0,0-.06,0,0M88.742,93.023c.034.007-.034.007,0,0s.068,0,0,0-.034-.007,0,0m-9.35,3.747c.151.15.285.288.292.288s-.141-.138-.292-.288-.285-.288-.292-.288.141.138.292.288m21.329-.288-.292.288.292-.288c.087-.082,0,0,0,0,0-.02.14-.146,0,0m0,.865h0c.084-.075.314,0,.292,0,0,0-.248-.049-.292,0m-20.744,3.17c.052.052-.008,0,0,0s.052.052,0,0,.008,0,0,0-.052-.052,0,0m24.543,0h0c.084-.075.021,0,0,0,0,0,.045-.049,0,0m-.292.288h0a2.568,2.568,0,0,0,.292-.288s-.248.239-.292.288m-23.958,0s-.049-.044,0,0h0c-.076-.083,0-.021,0,0m23.958,0-.292.288h.292c.057-.052,0-.284,0-.288,0-.021.089-.1,0,0m-24.543.288a.237.237,0,0,1,0,.288s.072-.221,0-.288h0m19.868.576h.292c.1-.087.021-.288,0-.288,0,0-.24.232-.292.288m-7.889,2.882c0,.1-.006.337,0,.288a2.254,2.254,0,0,0,0-.288c-.006-.049,0-.1,0,0m-4.09.576c.042.006-.034.007,0,0s.076,0,0,0-.042-.006,0,0m3.214,2.017h0a2.567,2.567,0,0,0,.292-.288s-.24.232-.292.288M89.035,108.3a2.151,2.151,0,0,0,.292,0c.026-.007.061,0,0,0s-.326-.007-.292,0" transform="translate(-0.01 -0.263)" fill="#11bc89" fill-rule="evenodd"/>
  </g>
</svg>
