<svg xmlns="http://www.w3.org/2000/svg" width="360" height="640" viewBox="0 0 360 640">
  <g id="texture_bg" transform="translate(360) rotate(90)">
    <path id="Path_285" data-name="Path 285" d="M64.411,360h189.6V0H46.521S93,63.676,93.913,136.582,70.06,249.57,64.411,291.626C58.762,335.879,64.411,360,64.411,360Z" transform="translate(303.652)" fill="#20dfa6"/>
    <path id="Path_284" data-name="Path 284" d="M81.154,360H217.4V0H52.594S77.7,40.857,81.154,77.577c2.511,42.37-27.618,156.3-21.968,194.59S81.154,360,81.154,360Z" transform="translate(354.604)" fill="#17d29a"/>
    <path id="Path_283" data-name="Path 283" d="M51.9,360H173.835V0H47.507S32.374,34.266,34.448,78.205,66.966,237.643,69.791,287.86C73.871,330.544,51.9,360,51.9,360Z" transform="translate(419.498)" fill="#13c993"/>
    <path id="Path_282" data-name="Path 282" d="M57.322,360h81.068V0H43.826s-8.16,46.192-12.868,79.774-11.613,155.358,0,192.706C42.884,302.611,57.322,360,57.322,360Z" transform="translate(472.611)" fill="#10c48f"/>
    <path id="Path_281" data-name="Path 281" d="M-50.211,360h94.4V0h-94.4S-71.44,37.852-74.825,103.9s16.13,111.78,29.854,157.41C-31.729,305.254-50.211,360-50.211,360Z" transform="translate(595.808)" fill="#11bc89"/>
    <path id="Path_355" data-name="Path 355" d="M228.776,0H24.584V360H210.855S232,313.273,233.8,259.731c1.872-55.632-15.736-118.8-22.949-152.409C196.723,41.471,228.776,0,228.776,0Z" transform="translate(-24.584)" fill="#cdffcf"/>
    <path id="Path_354" data-name="Path 354" d="M185.922,0H34.253V360H191.388s18.824-34.266,16.244-78.205S167.183,122.357,163.67,72.14C158.595,29.456,185.922,0,185.922,0Z" transform="translate(-34.164)" fill="#cdfccf"/>
    <path id="Path_353" data-name="Path 353" d="M59.15,360H-71.734V0H31.634S47.68,73.029,46.975,117.692C44.047,167.029,16.89,224.85,31.634,276.386,44.706,322.894,59.15,360,59.15,360Z" transform="translate(71.823)" fill="#bff5c0" opacity="0.8"/>
    <path id="Path_287" data-name="Path 287" d="M35.781,360H-71.734V0H29.837S-11.777,74.33-12.371,118.994c.711,32.834,16.525,107.386,33.149,152.05C38.891,319.923,35.781,360,35.781,360Z" transform="translate(71.734)" fill="#e5ffe6" opacity="0.8"/>
    <path id="Path_286" data-name="Path 286" d="M-11.1,360H-71.734V0H-11.1S12.969,38.422,12.718,83.086-15.417,216.168-24.23,261.8C-32.735,305.737-11.1,360-11.1,360Z" transform="translate(71.823)" fill="#c3f9c5" opacity="0.8"/>
  </g>
</svg>
