<svg xmlns="http://www.w3.org/2000/svg" width="150" height="145" viewBox="0 0 150 145">
  <g id="ic_logo" transform="translate(-67.403 -65.041)">
    <path id="path0" d="M168.729,65.2c-16.646,2.582-20.78,24.586-5.845,32.079,4.822,2.419,12.012,2.51,16.561,0,11.727-6.473,11.489-23.151,0-30.135A17.854,17.854,0,0,0,168.729,65.2m-56.5,0A15.719,15.719,0,0,0,97.615,76.863c-3.1,12.242,5.963,23.2,18.509,22.358,6.94-.467,13.379-7.041,14.612-13.609.076-.4-.083-.542,0-.972a16.189,16.189,0,0,0-6.819-16.526c-3.289-2.193-6.605-3.119-11.69-2.916M94.693,103.109a4.511,4.511,0,0,0-.974,0c-6.3.831-12.848,3.6-16.561,6.8-7.4,6.382-10.507,15.088-8.767,27.219,4.079,28.444,32.377,59.908,62.346,69.991,8.489,2.856,11.867,3.233,10.716.972a10.113,10.113,0,0,0-2.922-2.916c-1.131-.849-7.28-4.546-9.742-5.833-.692-.362-1.783-.316-2.922-.972s-3.061-2.449-3.9-2.916c-6.894-3.851-8.543-4.874-11.69-7.777-3.53-3.256-8.566-8.687-10.716-12.637-.22-.4.149-.7,0-.972a66.116,66.116,0,0,1-6.819-20.414c-.084-.531-.8-1.855-.974-2.916-1.984-12.191,1.11-21.974,7.793-25.274,3.01-1.487,7.519-2.273,10.716-.972,3.469,1.411,6.736,5.515,9.742,12.637.256.607.559,1.931.974,2.916,3.956,9.371,6.66,12.89,10.716,15.553,3.142,2.063,7.532,3.209,8.767,1.944,1.484-1.521.754-4.219-1.948-8.749a77.844,77.844,0,0,1-4.871-7.777c-1-1.851-2.225-6.165-2.922-7.777-.335-.777-.764-1.464-.974-1.944a41.78,41.78,0,0,1-1.948-4.86A35.495,35.495,0,0,0,113.2,107.97a39.4,39.4,0,0,0-7.793-3.888,35.7,35.7,0,0,0-10.716-.972m88.648,0a23.575,23.575,0,0,0-6.819,1.944c-8.093,3.47-15.933,11.709-18.509,19.442-2.38,7.144-4.6,12.135-9.742,21.386-3.551,6.39-3.769,6.936-3.9,8.749-.178,2.53,1.211,4.139,3.9,3.888,6.505-.608,11.036-6.188,15.586-17.5,4.969-12.35,7.482-16.549,13.638-17.5,11.7-1.8,18.964,11.89,15.586,30.135a54.674,54.674,0,0,1-2.922,10.693c-.4,1-.833,2.487-.974,2.916-.856,2.6-3.442,7.116-5.845,10.693A51.224,51.224,0,0,1,169.7,191.57a96.771,96.771,0,0,1-8.767,5.833c-.709.4-2.213.556-2.922.972s-1.366.657-1.948.972-1.745.861-1.948.972-.392.654-.974.972c-2.854,1.557-6.167,3.368-6.819,3.888a15.493,15.493,0,0,0-1.948,2.916c-1.394,2.154-.608,2.059,3.9.972,30.579-7.381,62.088-38.971,68.191-69.019,1.788-8.806,1.027-16.412-1.948-22.358-5.063-10.118-18.4-16.5-31.173-14.581M95.667,160.463a30.465,30.465,0,0,0,2.922,8.749c6.536,12.729,17.8,22.586,31.173,28.191a11.239,11.239,0,0,0,6.819.972c2.084-.431.475-2.993-2.922-5.833-1.847-1.544-7.349-5.833-7.793-5.833a6.919,6.919,0,0,1-3.9-.972,79.642,79.642,0,0,1-11.69-8.749c-4.825-4.134-11.784-11.393-14.612-15.554-.494-.727,0-1.225,0-.972m93.519,0c-.19.073.1.8,0,.972-1.109,1.891-4.58,5.443-7.793,8.749-6.907,7.108-12.612,12.149-20.457,16.526-2.705,1.509-4.911,2.237-5.845,2.916-.419.305-1.482,1.615-1.948,1.944-3.549,2.5-4.876,4.1-4.871,5.833v.972h0c.952.611,1.5,1.258,2.922.972a30.174,30.174,0,0,0,7.793-2.916,64.533,64.533,0,0,0,22.406-18.47c2.451-3.083,4.98-10,6.819-14.581.486-1.213,1.82-1.709,1.948-1.944.29-.533-.555-1.134-.974-.972m-86.7,5.833c-.09.357,7.489,6.962,10.716,9.721,6.638,5.674,13.011,8.73,14.612,6.8a2.777,2.777,0,0,0,0-2.916,8.968,8.968,0,0,0-5.845-3.888c-2.174-.548-2.435-.325-3.9-.972a77.432,77.432,0,0,1-9.742-4.86,56.673,56.673,0,0,1-4.871-3.888c-.82-.62-.9-.316-.974,0m78.907,0c-.8.6-3.961,3.337-4.871,3.888-.248.15-.7-.173-.974,0s-1.518.733-1.948.972-.771.857-.974.972a35.856,35.856,0,0,1-9.742,3.888c-4.126.966-6.258,4.055-5.845,6.8.363,2.416,4.806.3,10.716-3.888,3.933-2.79,14.792-11.926,14.612-12.637-.085-.339-.036-.7-.974,0" transform="translate(-0.048 0)" fill="#fff" fill-rule="evenodd"/>
    <path id="path1" d="M147.582,95.546c0,.212-.021,1.013,0,.907a6.664,6.664,0,0,0,0-.907c-.021-.107,0-.213,0,0m73.5,28.128c0,.015.754-.138.907,0h0c-.235-.26-.907-.066-.907,0m7.259,17.24c0,.189-.021.107,0,0a6.514,6.514,0,0,0,0-.907c-.022-.082,0,.718,0,.907m0,.907c0,.377-.019,1.109,0,.907a7.525,7.525,0,0,0,0-.907c-.018-.175,0-.378,0,0M171.173,162.69h0c.26-.235.974,0,.907,0-.015,0-.769-.153-.907,0m23.591,12.7-.907.907.907-.907c.554-.542.907-.895.907-.907,0-.062.007-.029-.907.907M124.9,180.837c0,.015-.153-.139,0,0h0c-.235-.26,0-.066,0,0M111.288,189c0,.015.754.769.907.907h0V189c-.235-.26-.907-.066-.907,0m93.457.907h0c.26-.235.066,0,0,0-.015,0,.138-.153,0,0m-16.332,1.815h0c.413-.4.907-.895.907-.907,0-.062-.232.21-.907.907" transform="translate(-10.948 -14.934)" fill="#fff" fill-rule="evenodd"/>
    <path id="path2" d="M133.526,65.363a6.074,6.074,0,0,0,.907,0c.082-.023-.742,0-.907,0s-.082-.023,0,0m12.7,29.214h0c.248-.251.907-.959.907-.974a8.053,8.053,0,0,0-.907.974m-21.776,0c0,.016-.153-.149,0,0h0c-.235-.279,0-.071,0,0m-6.351,8.764c.107.022-.082.023,0,0s.188,0,0,0-.107-.022,0,0m1.815,0a5.927,5.927,0,0,0,.907,0c.082-.023-.742,0-.907,0s-.082-.023,0,0m84.383,0a6.138,6.138,0,0,0,.907,0c.082-.023-.719,0-.907,0s-.107-.022,0,0m19.962,7.79c0,.016-.153-.149,0,0h0c-.235-.279,0-.071,0,0m-89.827,16.555c.233.254.884,0,.907,0s-.675.254-.907,0,.024-.974,0-.974-.232.721,0,.974m75.31,16.555c0,.506-.017,1.241,0,.974a9.029,9.029,0,0,0,0-.974c-.017-.239,0-.507,0,0m-82.569,25.319c.356.407,0,.07,0,0,0-.014.224.225,0,0l-.907-.974.907.974m68.958,0c-.208.228-.024.974,0,.974s-.208-.746,0-.974.931,0,.907,0-.7-.228-.907,0m-1.815,2.921h0a.612.612,0,0,0,0-.974c-.013,0,.282.657,0,.974m-64.422,0c.16.177-.023,0,0,0s.16.177,0,0,.023,0,0,0-.16-.177,0,0m-1.815.974c0,.016-.153.825,0,.974h0c-.235-.279,0-1.045,0-.974m19.054,10.712c.131.021-.106.022,0,0s.236,0,0,0-.13-.022,0,0m29.035,0c.083.023-.083.023,0,0s.165,0,0,0-.082-.023,0,0m29.035,1.948h0c.26-.252.066,0,0,0-.015,0,.138-.165,0,0m-46.275,20.45c.16.177-.024,0,0,0s.16.177,0,0,.024,0,0,0-.16-.177,0,0" transform="translate(-14.132 -0.175)" fill="#fff" fill-rule="evenodd"/>
    <path id="path3" d="M113.188,65.363a7.547,7.547,0,0,0,.974,0c.139-.021-.67,0-.974,0s-.165-.02,0,0m1.948,0c.088.023-.088.023,0,0s.177,0,0,0-.088-.023,0,0m67.2,4.86c0,.016.809-.148.974,0h0c-.252-.278-.974-.071-.974,0m5.844,12.637c0,.3-.02.165,0,0s.021.138,0,0,0-.3,0,0M157.988,93.552c0,.016.809-.148.974,0v0c-.252-.279-.974-.071-.974,0m-61.357,9.721a8.2,8.2,0,0,0,.974,0c.215-.019-.543,0-.974,0s-.215-.019,0,0m90.574,0a8.082,8.082,0,0,0,.974,0c.188-.02-.568,0-.974,0s-.217-.019,0,0M76.179,111.049h0c.322-.294.07-.972,0-.972-.016,0,.175.782,0,.972m90.574.972c-.224.227-1,.972-.974.972s.75-.745.974-.972.025,0,0,0,.224-.228,0,0m-47.722.972c.226.24-.015,0,0,0,.069,0,.407.381,0,0v0M217.4,128.546c0,.2-.022.114,0,0s.023.088,0,0,0-.2,0,0m-149.983.972c0,.2.952,1.087.974.972a6.953,6.953,0,0,0,0-.972c-.023-.088-.974-.2-.974,0M217.4,133.407c0,.177-.023,1.06,0,.972a6.958,6.958,0,0,0,0-.972c-.023-.088,0-.177,0,0m-23.374,9.721c0,.2-.022.115,0,0s.023.088,0,0,0-.2,0,0M138.509,158.68c.114.022-.114.022,0,0s.228,0,0,0-.114-.022,0,0m-31.165,12.637c.5.506.949.972.974.972s-.469-.466-.974-.972-.949-.972-.974-.972.469.467.974.972m71.1-.972-.974.972.974-.972c.291-.276,0,.014,0,0,0-.068.468-.491,0,0m0,2.916h0c.279-.251,1.045,0,.974,0-.016,0-.825-.164-.974,0m-69.148,10.693c.172.176-.025,0,0,0s.172.176,0,0,.025,0,0,0-.172-.177,0,0m81.809,0h0c.279-.251.071,0,0,0-.016,0,.149-.164,0,0m-.974.972h0a8.614,8.614,0,0,0,.974-.972c-.016,0-.825.808-.974.972m-79.861,0c0,.016-.165-.148,0,0h0c-.252-.279,0-.071,0,0m79.861,0-.974.972h.974c.19-.174,0-.957,0-.972,0-.071.3-.321,0,0m-81.809.972a.806.806,0,0,1,0,.972c0-.015.24-.747,0-.972h0m66.226,1.944h.974c.322-.295.071-.972,0-.972-.015,0-.8.782-.974.972m-26.3,9.721c0,.328-.02,1.136,0,.972a7.7,7.7,0,0,0,0-.972c-.02-.164,0-.329,0,0m-13.635,1.944c.14.021-.113.022,0,0s.254,0,0,0-.14-.021,0,0m10.713,6.8h0a8.605,8.605,0,0,0,.974-.972c-.015,0-.8.782-.974.972m-5.843,3.888a7.085,7.085,0,0,0,.974,0c.088-.023.2,0,0,0s-1.088-.022-.974,0" transform="translate(-0.01 -0.175)" fill="#fff" fill-rule="evenodd"/>
  </g>
</svg>
