<svg xmlns="http://www.w3.org/2000/svg" width="1920.001" height="1080" viewBox="0 0 1920.001 1080">
  <g id="texture_bg" transform="translate(0.001)">
    <path id="Path_285" data-name="Path 285" d="M100.19,0H669V1080H46.521S185.959,888.973,188.7,670.254,117.138,331.291,100.19,205.122C83.242,72.362,100.19,0,100.19,0Z" transform="translate(989)" fill="#20dfa6"/>
    <path id="Path_284" data-name="Path 284" d="M138.275,0H547V1080H52.594s75.325-122.57,85.682-232.732c7.533-127.111-82.853-468.9-65.9-583.768S138.275,0,138.275,0Z" transform="translate(1154)" fill="#17d29a"/>
    <path id="Path_283" data-name="Path 283" d="M87.2,0H453V1080H74.016s-45.4-102.8-39.177-234.616,97.554-478.314,106.028-628.964C153.108,88.369,87.2,0,87.2,0Z" transform="translate(1312)" fill="#13c993"/>
    <path id="Path_282" data-name="Path 282" d="M122.8,0H366V1080H82.309S57.828,941.424,43.7,840.677,8.867,374.6,43.7,262.557C79.484,172.167,122.8,0,122.8,0Z" transform="translate(1452)" fill="#10c48f"/>
    <path id="Path_281" data-name="Path 281" d="M2.931,0H298V1080H2.931S-63.421,966.444-74,768.285-23.583,432.944,19.31,296.056C60.7,164.237,2.931,0,2.931,0Z" transform="translate(1622)" fill="#11bc89"/>
    <path id="Path_355" data-name="Path 355" d="M637.159,1080H24.584V0H583.4s63.442,140.18,68.846,300.807c5.615,166.9-47.208,356.4-68.846,457.226C541,955.586,637.159,1080,637.159,1080Z" transform="translate(-24.585)" fill="#cdffcf"/>
    <path id="Path_354" data-name="Path 354" d="M489.26,1080H34.253V0h471.4s56.471,102.8,48.731,234.616S433.044,712.929,422.5,863.579C407.278,991.631,489.26,1080,489.26,1080Z" transform="translate(-33.987)" fill="#cdfccf"/>
    <path id="Path_353" data-name="Path 353" d="M320.918,0H-71.734V1080h310.1s48.138-219.086,46.022-353.077C275.61,578.913,194.138,405.45,238.37,250.842,277.586,111.317,320.918,0,320.918,0Z" transform="translate(72)" fill="#bff5c0" opacity="0.8"/>
    <path id="Path_287" data-name="Path 287" d="M250.812,0H-71.734V1080H232.978S108.137,857.009,106.354,723.018c2.132-98.5,49.575-322.158,99.447-456.149C260.141,120.231,250.812,0,250.812,0Z" transform="translate(71.734)" fill="#e5ffe6" opacity="0.8"/>
    <path id="Path_286" data-name="Path 286" d="M110.158,0H-71.734V1080H110.158s72.218-115.266,71.463-249.257S97.218,431.5,70.777,294.607C45.264,162.789,110.158,0,110.158,0Z" transform="translate(72)" fill="#c3f9c5" opacity="0.8"/>
  </g>
</svg>
